<svg width="28" height="29" viewBox="0 0 28 29" fill="none" xmlns="http://www.w3.org/2000/svg">
<path d="M13.999 28.5829C21.5233 28.5829 27.623 22.4833 27.623 14.9589C27.623 7.43463 21.5233 1.33496 13.999 1.33496C6.47467 1.33496 0.375 7.43463 0.375 14.9589C0.375 22.4833 6.47467 28.5829 13.999 28.5829Z" fill="#F55D92" stroke="#F9BBD0"/>
<path d="M13.9985 19.4113C16.8178 19.4113 19.1033 16.4562 19.1033 12.8108C19.1033 9.16544 16.8178 6.2103 13.9985 6.2103C11.1791 6.2103 8.89355 9.16544 8.89355 12.8108C8.89355 16.4562 11.1791 19.4113 13.9985 19.4113Z" fill="white"/>
<path d="M13.9993 19.8997C9.89148 19.8997 6.27408 21.3831 4.1543 23.6346C5.385 25.0332 6.89957 26.1536 8.59714 26.921C10.2947 27.6885 12.1363 28.0854 13.9993 28.0854C15.8623 28.0854 17.7039 27.6885 19.4015 26.921C21.0991 26.1536 22.6136 25.0332 23.8443 23.6346C21.7246 21.3831 18.1011 19.8997 13.9993 19.8997Z" fill="white"/>
<path d="M14.3552 14.959H13.6439C12.5672 14.959 11.6943 15.8318 11.6943 16.9085V21.3446C11.6943 22.4213 12.5672 23.2942 13.6439 23.2942H14.3552C15.4319 23.2942 16.3048 22.4213 16.3048 21.3446V16.9085C16.3048 15.8318 15.4319 14.959 14.3552 14.959Z" fill="white"/>
<path d="M9.59873 13.1168C9.89663 13.972 9.77707 14.7907 9.33528 14.9407C8.89349 15.0907 8.2916 14.5354 7.99572 13.668C7.69984 12.8007 7.81536 11.9941 8.25917 11.8441C8.70299 11.6942 9.30082 12.2596 9.59873 13.1168Z" fill="white"/>
<path d="M18.4009 13.1168C18.103 13.972 18.2205 14.7907 18.6644 14.9407C19.1082 15.0907 19.706 14.5354 20.0039 13.668C20.3018 12.8007 20.1823 11.9941 19.7405 11.8441C19.2987 11.6942 18.6968 12.2596 18.4009 13.1168Z" fill="white"/>
<path d="M20.2626 13.6863C20.1511 12.065 20.2059 10.385 19.681 8.83672C19.3904 7.9633 18.9113 7.16443 18.2778 6.49661C17.6443 5.82878 16.8718 5.30833 16.0149 4.97207C14.2944 4.33371 12.2415 4.59716 10.8047 5.73811C10.3021 6.14342 9.84813 6.71289 9.89879 7.35936C9.02737 7.06348 8.0526 7.68361 7.64526 8.51044C7.23792 9.33728 7.25616 10.3019 7.31493 11.222C7.48516 13.9193 7.89655 16.6835 7.16699 19.2816L13.8789 19.4842C14.5963 19.5065 15.3117 19.5268 16.0291 19.4964C17.853 19.4174 19.7499 19.006 21.4704 19.6261C20.8089 17.7078 20.4028 15.7106 20.2626 13.6863Z" fill="white"/>
</svg>
