<svg width="33" height="33" viewBox="0 0 33 33" fill="none" xmlns="http://www.w3.org/2000/svg">
<path d="M31.6055 20.4263C33.5194 12.0832 28.3075 3.76834 19.9645 1.85446C11.6214 -0.0594258 3.30651 5.15246 1.39262 13.4955C-0.521261 21.8386 4.69062 30.1535 13.0337 32.0674C21.3768 33.9813 29.6917 28.7694 31.6055 20.4263Z" fill="#4CB4F5" stroke="#C1E0F3"/>
<path d="M16.4992 23.1219C19.7213 23.1219 22.3334 19.504 22.3334 15.0411C22.3334 10.5782 19.7213 6.96036 16.4992 6.96036C13.2771 6.96036 10.665 10.5782 10.665 15.0411C10.665 19.504 13.2771 23.1219 16.4992 23.1219Z" fill="white"/>
<path d="M16.4086 22.6054C11.524 22.6054 7.15825 23.7773 4.25391 25.6163C5.63348 27.5698 7.46038 29.1649 9.58209 30.2685C11.7038 31.372 14.0587 31.952 16.4502 31.9599C18.8418 31.9679 21.2005 31.4035 23.3295 30.3141C25.4584 29.2246 27.2959 27.6416 28.6884 25.6973C25.7864 23.812 21.3627 22.6054 16.4086 22.6054Z" fill="white"/>
<path d="M17.3886 16.9588H15.6099C14.3794 16.9588 13.3818 17.9563 13.3818 19.1869V24.2567C13.3818 25.4872 14.3794 26.4848 15.6099 26.4848H17.3886C18.6192 26.4848 19.6167 25.4872 19.6167 24.2567V19.1869C19.6167 17.9563 18.6192 16.9588 17.3886 16.9588Z" fill="white"/>
<path d="M11.5866 15.4997C11.7603 16.7967 11.4731 17.92 10.9428 18.0103C10.4124 18.1006 9.84262 17.1232 9.66892 15.8262C9.49521 14.5293 9.7824 13.4083 10.3012 13.3087C10.82 13.2091 11.4106 14.205 11.5866 15.4997Z" fill="white"/>
<path d="M21.4183 15.4997C21.2422 16.7967 21.5318 17.92 22.0598 18.0103C22.5879 18.1006 23.1599 17.1232 23.336 15.8262C23.512 14.5293 23.2179 13.4083 22.6875 13.3087C22.1571 13.2091 21.5873 14.205 21.4183 15.4997Z" fill="white"/>
<path d="M10.8686 14.7238C10.671 13.4299 10.4749 12.136 10.2803 10.8421C10.2085 10.3788 10.1391 9.87858 10.3104 9.43389C10.4818 8.98921 10.9867 8.63948 11.4314 8.80624C11.2531 7.90529 12.249 7.24058 13.1152 6.95339C14.564 6.4183 16.1163 6.22336 17.6524 6.38363C19.1959 6.55475 20.6283 7.26891 21.6939 8.39861C22.0295 8.75376 22.2889 9.17388 22.4559 9.63307C22.7547 10.5201 22.5648 11.4859 22.3725 12.4124L21.9093 14.5964C21.8878 14.7644 21.8231 14.924 21.7217 15.0596C21.5411 15.2611 21.2353 15.275 20.9644 15.2773L12.2837 15.2959C11.7418 15.2959 11.0307 15.1615 10.9589 14.6242" fill="white"/>
</svg>
